<?xml version="1.0" standalone="no"?>
<!DOCTYPE svg PUBLIC "-//W3C//DTD SVG 20010904//EN"
 "http://www.w3.org/TR/2001/REC-SVG-20010904/DTD/svg10.dtd">
<svg version="1.0" xmlns="http://www.w3.org/2000/svg"
 width="441.000000pt" height="439.000000pt" viewBox="0 0 441.000000 439.000000"
 preserveAspectRatio="xMidYMid meet">
<metadata>
Created by potrace 1.15, written by Peter Selinger 2001-2017
</metadata>
<g transform="translate(0.000000,439.000000) scale(0.100000,-0.100000)"
fill="#000000" stroke="none">
<path d="M1590 3336 c-224 -48 -410 -187 -505 -376 -57 -115 -70 -176 -70
-330 1 -125 4 -154 24 -210 61 -173 47 -156 560 -672 269 -271 490 -485 510
-494 100 -48 241 40 241 150 0 32 3 36 25 36 86 0 175 83 175 163 0 33 1 35
45 39 25 3 61 16 80 29 39 27 75 93 75 139 0 27 3 30 31 30 17 0 46 7 64 16
46 22 341 321 385 391 77 121 110 237 110 384 0 118 -22 217 -71 315 -98 199
-275 337 -493 386 -188 42 -401 0 -552 -107 l-45 -32 -79 47 c-155 93 -350
130 -510 96z m259 -76 c68 -13 157 -49 221 -90 l51 -33 -270 -271 c-263 -264
-271 -273 -271 -311 0 -81 71 -147 176 -167 50 -9 69 -8 118 6 54 16 71 29
181 137 67 65 127 119 133 119 6 0 23 -11 39 -24 35 -29 127 -76 150 -76 20 0
467 -441 489 -482 47 -89 -49 -183 -139 -137 -12 6 -120 108 -240 227 -186
186 -220 215 -235 206 -40 -26 -27 -44 186 -258 115 -116 217 -222 226 -236
57 -86 -56 -192 -144 -134 -14 9 -121 112 -238 228 -182 181 -215 209 -230
200 -40 -26 -27 -44 191 -263 118 -119 220 -226 226 -238 19 -37 12 -71 -20
-108 -33 -38 -78 -46 -122 -24 -12 6 -120 108 -240 227 -186 186 -220 215
-235 206 -40 -26 -27 -44 186 -258 115 -116 217 -222 226 -236 26 -40 20 -78
-18 -116 -44 -44 -87 -46 -142 -5 -21 16 -231 222 -465 457 -455 458 -475 483
-524 627 -53 160 -41 325 36 486 78 161 251 299 424 336 73 16 204 19 274 5z
m971 -17 c163 -54 307 -177 378 -323 102 -207 91 -446 -29 -628 -41 -63 -194
-232 -209 -232 -5 0 -12 10 -15 23 -4 12 -104 120 -223 239 -211 213 -215 217
-186 224 75 17 161 88 149 123 -9 30 -45 26 -90 -9 -90 -71 -208 -63 -317 22
-29 23 -55 45 -58 48 -3 4 -13 10 -23 13 -15 6 -48 -21 -151 -122 -73 -70
-146 -136 -163 -145 -36 -18 -108 -21 -150 -5 -35 13 -83 58 -83 78 0 19 506
528 585 588 134 101 244 135 415 129 74 -3 135 -11 170 -23z"/>
</g>
</svg>
