<?xml version="1.0" standalone="no"?>
<!DOCTYPE svg PUBLIC "-//W3C//DTD SVG 20010904//EN"
 "http://www.w3.org/TR/2001/REC-SVG-20010904/DTD/svg10.dtd">
<svg version="1.0" xmlns="http://www.w3.org/2000/svg"
 width="594.000000pt" height="532.000000pt" viewBox="0 0 594.000000 532.000000"
 preserveAspectRatio="xMidYMid meet">
<metadata>
Created by potrace 1.15, written by Peter Selinger 2001-2017
</metadata>
<g transform="translate(0.000000,532.000000) scale(0.100000,-0.100000)"
fill="#000000" stroke="none">
<path d="M2246 3964 c-43 -8 -111 -25 -150 -39 -60 -21 -91 -25 -179 -25
l-107 0 0 -835 0 -835 500 0 500 0 0 -35 0 -35 178 2 177 3 -3 33 -4 32 491 0
491 0 0 835 0 835 -106 0 c-89 0 -118 4 -176 25 -198 71 -406 71 -653 0 -72
-21 -106 -25 -223 -25 -115 0 -151 4 -227 25 -194 54 -355 67 -509 39z m435
-77 c54 -14 135 -40 180 -59 l84 -33 3 -730 c1 -401 0 -735 -2 -742 -4 -10
-15 -9 -48 3 -209 74 -540 84 -837 23 -51 -10 -97 -19 -102 -19 -5 0 -9 311
-9 733 l0 733 73 36 c149 74 220 88 412 84 120 -3 169 -9 246 -29z m1070 12
c46 -12 121 -40 167 -62 l82 -41 0 -733 c0 -403 -4 -733 -8 -733 -4 0 -48 9
-97 19 -290 62 -620 52 -834 -24 -24 -8 -45 -15 -47 -15 -2 0 -3 334 -2 742
l3 741 66 28 c83 35 226 77 299 88 112 17 281 12 371 -10z"/>
<path d="M2299 3646 c-70 -15 -169 -53 -169 -66 0 -26 29 -27 97 -4 155 52
292 52 446 0 66 -23 73 -23 84 -8 17 21 10 25 -92 58 -99 32 -264 41 -366 20z"/>
<path d="M2299 3456 c-67 -15 -169 -55 -169 -66 0 -4 6 -12 13 -18 9 -8 31 -5
79 13 156 57 350 52 486 -12 31 -15 35 -15 50 1 22 22 13 28 -93 62 -97 32
-275 41 -366 20z"/>
<path d="M2340 3273 c-81 -12 -210 -57 -210 -72 0 -3 4 -12 9 -20 7 -11 24 -8
92 15 76 26 96 29 219 29 123 0 142 -3 215 -28 76 -27 80 -28 93 -10 12 16 8
20 -37 40 -96 42 -270 64 -381 46z"/>
<path d="M2291 3075 c-35 -8 -86 -25 -113 -37 -45 -21 -48 -25 -35 -42 13 -18
16 -17 88 10 68 25 86 28 214 28 129 1 146 -1 219 -27 72 -26 81 -27 95 -12
21 21 11 27 -94 61 -100 33 -274 41 -374 19z"/>
<path d="M2313 2889 c-55 -9 -183 -57 -183 -68 0 -3 4 -13 9 -20 8 -13 22 -10
93 15 76 27 94 29 218 29 123 0 142 -3 215 -28 75 -27 80 -27 92 -10 12 16 8
20 -37 40 -107 47 -273 64 -407 42z"/>
<path d="M2315 2697 c-33 -7 -88 -23 -122 -36 -55 -21 -61 -25 -52 -42 5 -11
12 -19 14 -19 3 0 40 12 82 27 70 25 92 28 213 28 122 0 142 -3 210 -28 99
-36 94 -35 98 -11 2 17 -7 25 -50 42 -29 12 -71 26 -93 32 -63 17 -233 21
-300 7z"/>
<path d="M3345 3645 c-34 -8 -84 -24 -113 -37 -47 -20 -52 -25 -40 -40 12 -16
18 -15 86 8 154 52 304 52 453 -2 80 -29 75 -29 82 -4 4 16 -5 23 -52 41 -129
48 -290 62 -416 34z"/>
<path d="M3347 3455 c-37 -8 -90 -24 -118 -37 -44 -20 -49 -25 -37 -40 12 -16
18 -15 85 8 157 53 289 53 451 -2 60 -20 77 -22 83 -12 15 22 11 26 -48 48
-132 50 -279 62 -416 35z"/>
<path d="M3345 3264 c-38 -9 -92 -25 -118 -37 -44 -20 -47 -24 -35 -40 13 -18
17 -17 93 10 72 25 93 27 215 28 124 0 142 -2 218 -29 71 -25 85 -28 93 -15
15 23 12 26 -61 53 -129 47 -272 58 -405 30z"/>
<path d="M3347 3075 c-37 -8 -90 -24 -118 -37 -46 -21 -49 -25 -36 -42 13 -18
16 -17 88 10 69 26 85 28 219 28 133 0 151 -2 219 -27 89 -32 87 -32 94 -7 4
16 -5 23 -52 41 -130 49 -277 61 -414 34z"/>
<path d="M3345 2884 c-72 -16 -165 -52 -165 -63 0 -3 4 -12 9 -20 8 -12 24 -9
98 15 80 26 100 29 223 28 121 0 143 -3 210 -27 70 -26 76 -26 87 -10 17 22
10 26 -92 59 -103 34 -265 41 -370 18z"/>
<path d="M3365 2697 c-33 -7 -88 -23 -122 -36 -55 -21 -61 -25 -52 -42 5 -11
12 -19 14 -19 3 0 40 12 82 26 58 20 105 28 183 32 116 5 183 -6 273 -42 55
-23 58 -23 67 -5 32 58 -285 119 -445 86z"/>
</g>
</svg>
