<?xml version="1.0" standalone="no"?>
<!DOCTYPE svg PUBLIC "-//W3C//DTD SVG 20010904//EN"
 "http://www.w3.org/TR/2001/REC-SVG-20010904/DTD/svg10.dtd">
<svg version="1.0" xmlns="http://www.w3.org/2000/svg"
 width="477.000000pt" height="443.000000pt" viewBox="0 0 477.000000 443.000000"
 preserveAspectRatio="xMidYMid meet">
<metadata>
Created by potrace 1.15, written by Peter Selinger 2001-2017
</metadata>
<g transform="translate(0.000000,443.000000) scale(0.100000,-0.100000)"
fill="#000000" stroke="none">
<path d="M2360 3423 c-8 -2 -38 -13 -66 -24 -49 -19 -53 -20 -103 -3 -83 27
-209 16 -289 -25 -34 -17 -80 -48 -102 -67 -35 -32 -45 -36 -102 -38 -142 -5
-281 -116 -317 -253 -8 -29 -18 -44 -34 -49 -43 -13 -122 -83 -156 -139 -49
-80 -71 -157 -78 -262 -10 -151 21 -259 103 -359 101 -124 305 -181 472 -130
l62 19 28 -25 c53 -50 111 -71 192 -72 64 0 83 4 123 26 l47 27 51 -35 c57
-38 134 -64 191 -64 80 0 78 7 78 -238 0 -156 3 -221 12 -230 19 -19 432 -17
447 2 6 7 18 49 26 92 18 103 29 137 59 187 32 56 48 69 134 112 118 58 183
141 201 256 4 26 21 68 38 93 68 102 83 280 32 377 -18 35 -25 66 -29 149 -5
83 -12 117 -31 160 -35 74 -106 150 -178 189 -33 17 -62 40 -66 50 -11 35
-100 116 -165 151 -58 30 -75 35 -160 38 -79 4 -101 8 -130 29 -69 47 -226 78
-290 56z m208 -99 c20 -8 51 -26 68 -39 30 -23 39 -25 101 -19 120 11 219 -37
287 -140 29 -43 48 -61 86 -77 29 -12 70 -43 99 -74 63 -66 85 -134 79 -239
-4 -61 -1 -76 18 -107 13 -20 30 -63 40 -95 23 -80 8 -162 -45 -247 -26 -43
-41 -79 -45 -116 -13 -101 -52 -152 -161 -206 -129 -65 -192 -154 -224 -311
l-18 -89 -52 -3 -51 -3 -1 118 c-1 169 0 193 17 246 21 63 60 100 150 142 99
45 129 68 160 120 28 48 26 80 -6 90 -26 8 -44 -3 -72 -45 -17 -26 -48 -47
-118 -82 -111 -55 -157 -99 -190 -184 -21 -52 -24 -81 -28 -232 l-4 -173 -51
3 -52 3 -5 206 c-6 255 -4 250 -146 270 -92 13 -125 27 -180 81 -22 21 -49 39
-60 40 -10 1 -43 -15 -73 -35 -44 -31 -61 -37 -105 -37 -63 0 -120 26 -165 74
-41 42 -52 43 -117 14 -39 -18 -68 -22 -144 -23 -84 0 -102 3 -150 27 -83 41
-126 82 -159 151 -45 93 -56 176 -37 277 28 151 87 238 193 285 41 19 53 30
58 52 19 89 29 110 79 159 65 63 126 87 203 78 l53 -7 55 52 c100 94 213 122
333 82 l62 -21 58 24 c31 13 66 26 77 29 32 9 145 -3 183 -19z"/>
<path d="M1980 3205 c-23 -28 7 -84 69 -127 l23 -16 -18 -49 c-24 -60 -27
-221 -5 -246 16 -20 56 -22 68 -4 4 6 8 53 8 102 0 78 4 98 28 146 15 31 27
63 27 72 0 9 -21 31 -47 48 -27 18 -60 46 -75 61 -29 31 -59 36 -78 13z"/>
<path d="M2426 3197 c-16 -12 -18 -25 -14 -93 9 -155 101 -274 242 -312 56
-16 72 -3 86 65 14 65 33 107 62 140 25 27 18 69 -14 79 -30 9 -86 -54 -112
-127 -10 -30 -20 -56 -22 -57 -8 -11 -74 35 -100 71 -36 48 -51 90 -58 166 -8
76 -30 97 -70 68z"/>
<path d="M1689 2974 c-10 -13 -9 -27 5 -83 10 -37 16 -81 14 -97 l-3 -29 -72
4 c-97 4 -171 -14 -186 -46 -9 -20 -7 -27 9 -44 19 -19 22 -19 83 -4 65 17
109 14 148 -12 60 -39 105 22 107 142 1 127 -59 224 -105 169z"/>
<path d="M3026 2877 c-13 -30 -45 -74 -74 -102 -29 -28 -52 -58 -52 -68 0 -10
12 -34 26 -52 37 -49 64 -128 64 -188 0 -64 11 -77 65 -77 23 0 64 -7 90 -15
54 -16 79 -8 91 27 9 31 -24 55 -95 69 l-58 11 -6 49 c-4 28 -20 77 -37 111
l-31 61 24 26 c64 70 101 158 77 186 -7 8 -23 15 -36 15 -20 0 -29 -10 -48
-53z"/>
<path d="M2363 2703 c-14 -35 -14 -47 2 -150 22 -144 22 -245 0 -301 -17 -42
-17 -44 2 -64 74 -73 126 127 89 337 -9 50 -16 93 -16 97 0 4 21 -2 46 -14 26
-11 73 -23 106 -26 92 -8 145 -57 164 -150 6 -31 6 -32 -28 -32 -44 0 -135
-45 -144 -72 -4 -14 1 -27 14 -41 l21 -20 52 23 c42 18 64 21 105 16 42 -5 56
-3 70 11 36 37 -9 208 -74 276 -39 42 -92 66 -168 76 -45 7 -83 20 -116 40
-27 17 -63 31 -79 31 -25 0 -33 -6 -46 -37z"/>
<path d="M2090 2653 c-27 -12 -53 -14 -112 -8 l-77 6 -22 -50 c-23 -53 -82
-115 -127 -132 -15 -6 -72 -12 -127 -13 -120 -3 -175 -21 -175 -59 0 -34 24
-51 57 -42 16 3 80 10 143 14 151 10 217 44 281 145 l24 37 82 3 c74 3 83 2
89 -16 3 -11 -1 -29 -10 -41 -100 -137 -116 -237 -39 -237 24 0 27 4 57 91 9
25 34 64 56 88 62 66 62 65 17 152 -43 86 -51 91 -117 62z"/>
</g>
</svg>
